<svg xmlns="http://www.w3.org/2000/svg" xmlns:xlink="http://www.w3.org/1999/xlink" width="32" height="32" viewBox="0 0 32 32"><defs><linearGradient id="b" x1="-.004" y1=".107" x2="-.004" y2="16.004" gradientTransform="scale(1.007 .993)" gradientUnits="userSpaceOnUse"><stop offset="0" stop-color="#fff" stop-opacity="0"/><stop offset="1" stop-color="#fff" stop-opacity=".15"/></linearGradient><filter id="d" color-interpolation-filters="sRGB"><feGaussianBlur stdDeviation=".3" in="SourceGraphic"/></filter><path id="a" d="M15.097 5.525l-1.28-.212-3.025-.498-.773-1.56-.625-1.253L8.773.748c-.424-.856-1.12-.856-1.545 0l-.623 1.254-.62 1.253h-.002l-.773 1.56-3.025.498-1.28.212c-.96.157-1.197.85-.53 1.542l3.114 3.22-.478 3.12-.214 1.407c-.145.94.438 1.342 1.294.9l1.177-.617 1.17-.613h.004L8 13.668l1.557.816h.004l1.17.613 1.18.617c.855.44 1.436.04 1.293-.9l-.214-1.406-.475-3.12 3.11-3.218c.668-.693.43-1.387-.528-1.545z"/><clipPath id="c"><use xlink:href="#a" width="16" height="16" fill="#fff"/></clipPath></defs><use xlink:href="#a" width="16" height="16" transform="matrix(1.874 0 0 1.9 1.008 .799)" fill-opacity=".8"/><use xlink:href="#a" width="16" height="16" transform="matrix(1.874 0 0 1.9 1.008 .799)" fill="url(#b)"/><path d="M29.3 11.297l-2.4-.402-5.668-.947-1.45-2.962v-.002l-1.168-2.38-1.166-2.384c-.794-1.627-2.1-1.627-2.895 0l-1.168 2.383-1.163 2.38-.002.003-1.45 2.962-5.668.947-2.4.402c-1.798.3-2.242 2.427-.994 3.74l5.156 5.566L5.75 29.41c-.273 1.785 1.322 2.9 2.926 2.06L16 27.58l7.683 3.89c1.604.84 3.004-.8 2.828-2.078l-1.414-8.755 5.195-5.592c1.25-1.32.805-3.447-.99-3.748z" clip-path="url(#c)" fill="none" stroke-miterlimit="10" stroke-opacity=".7" filter="url(#d)"/></svg>