<svg xmlns="http://www.w3.org/2000/svg" xmlns:xlink="http://www.w3.org/1999/xlink" width="16" height="16" viewBox="0 0 16 16"><defs><linearGradient id="b" x2="0" y2="100%"><stop offset="0" stop-color="#fff" stop-opacity="0"/><stop offset="1" stop-color="#fff" stop-opacity=".15"/></linearGradient><filter id="c"><feGaussianBlur stdDeviation=".3" in="SourceGraphic"/></filter><path id="a" d="M14.665 9.06l-5.59 5.503c-.29.29-.675.437-1.06.437-.383 0-.767-.146-1.06-.438L1.336 9.06C.75 8.475.948 8 1.772 8H5.02V2c0-.552.446-1 .998-1h3.996c.55 0 .998.448.998 1v6h3.215c.824 0 1.02.476.438 1.06z"/><clipPath id="d"><use xlink:href="#a" fill="#fff"/></clipPath></defs><use xlink:href="#a" fill="ButtonText" fill-opacity=".8"/><use xlink:href="#a" fill="url(#b)"/><path d="M14.665 9.31L9.32 15.123c-.29.29-.92.438-1.304.438s-.957-.146-1.25-.438l-5.432-5.81C.752 8.728.95 8.25 1.774 8.25h2.942V2c0-.552.75-1 1.302-1h4.265c.55 0 .998.448.998 1v6.25h2.946c.825 0 1.02.48.44 1.06z" fill="none" stroke="ButtonText" stroke-opacity=".7" filter="url(#c)" clip-path="url(#d)" stroke-miterlimit="10"/></svg>