<svg xmlns="http://www.w3.org/2000/svg" xmlns:xlink="http://www.w3.org/1999/xlink" width="32" height="32" viewBox="0 0 32 32"><defs><linearGradient id="b" x1=".849" y1=".848" x2=".849" y2="15.151" gradientUnits="userSpaceOnUse"><stop offset="0" stop-color="#fff" stop-opacity="0"/><stop offset="1" stop-color="#fff" stop-opacity=".15"/></linearGradient><filter id="d" color-interpolation-filters="sRGB"><feGaussianBlur stdDeviation=".3" in="SourceGraphic"/></filter><path id="a" d="M8 15.152C4.05 15.152.85 11.95.85 8 .85 4.05 4.05.848 8 .848S15.15 4.05 15.15 8s-3.2 7.152-7.15 7.152zm0-12.12C5.24 3.032 3 5.256 3 8c0 2.744 2.24 4.97 5 4.97s5-2.226 5-4.97c0-2.744-2.24-4.968-5-4.968zm-.313 5.905C7.29 8.804 7 8.44 7 8V5c0-.552.448-1 1-1 .553 0 1 .448 1 1v2.75C10.05 8.844 11 11 11 11s-2.246-.986-3.313-2.063z"/><clipPath id="c"><use xlink:href="#a" width="16" height="16" fill="#fff"/></clipPath></defs><use xlink:href="#a" width="16" height="16" transform="matrix(2.128 0 0 2.128 -.958 -1.095)" fill-opacity=".8"/><use xlink:href="#a" width="16" height="16" transform="matrix(2.128 0 0 2.128 -.958 -1.095)" fill="url(#b)"/><path d="M16.068 32.26C7.27 32.26.14 25.194.14 16.483.14 7.774 7.27.71 16.068.71c8.798 0 15.927 7.062 15.927 15.774 0 8.71-7.13 15.775-15.927 15.775zM-.068-26.72c-5.327 0-9.643 4.518-9.643 10.087 0 5.572 4.316 10.088 9.643 10.088 5.325 0 9.643-4.516 9.643-10.088 0-5.57-4.318-10.087-9.643-10.087zM6.536 29.495c-.843-.28-1.662-1.854-1.662-2.792l-.032-5.657C4.842 5.343 5.972 4.51 8 4.51c2.162 0 3.126.897 3.126 2.96l.032 5.022c2.237 2.322 3.825 7.55 3.825 7.55s-2.326.93-8.447-4.226z" clip-path="url(#c)" fill="none" stroke-miterlimit="10" stroke-opacity=".7" filter="url(#d)"/></svg>