<svg xmlns="http://www.w3.org/2000/svg" xmlns:xlink="http://www.w3.org/1999/xlink" width="16" height="16" viewBox="0 0 16 16"><defs><linearGradient id="b" x2="0" y2="100%"><stop offset="0" stop-color="#fff" stop-opacity="0"/><stop offset="1" stop-color="#fff" stop-opacity=".15"/></linearGradient><filter id="c"><feGaussianBlur stdDeviation=".3" in="SourceGraphic"/></filter><path id="a" d="M14.5 15h-13C.673 15 0 14.33 0 13.5v-11C0 1.672.673 1 1.5 1h13c.828 0 1.5.672 1.5 1.5v11c0 .83-.672 1.5-1.5 1.5zM2.5 2c-.275 0-.5.225-.5.5 0 .277.225.5.5.5.277 0 .5-.223.5-.5 0-.275-.223-.5-.5-.5zM4.44 2c-.276 0-.5.225-.5.5 0 .277.224.5.5.5s.5-.224.5-.5c0-.275-.224-.5-.5-.5zM6.5 2c-.276 0-.5.225-.5.5 0 .277.224.5.5.5s.5-.223.5-.5c0-.275-.224-.5-.5-.5zM14 5c0-.552-.447-1-1-1H3c-.55 0-1 .448-1 1v7c0 .553.45 1 1 1h10c.553 0 1-.447 1-1V5z"/><clipPath id="d"><use xlink:href="#a" fill="#fff"/></clipPath></defs><use xlink:href="#a" fill="ButtonText" fill-opacity=".8"/><use xlink:href="#a" fill="url(#b)"/><path d="M14.844 15.484H1.814c-.83 0-2.313-.344-2.313-2.172V2.5C-.5 1.672.173 1 1 1h13.985c.828 0 1.5.672 1.5 1.5v11.297c0 .64-.985 1.687-1.64 1.687zM6.5 2.507c-.028 0-.05.08-.05.175 0 .097.022.175.05.175.027 0 .05-.08.05-.175 0-.096-.022-.175-.05-.175zm-2.05 0c-.028 0-.05.08-.05.175 0 .097.022.175.05.175.027 0 .05-.08.05-.175 0-.096-.022-.175-.05-.175zm-1.934 0c-.028 0-.05.08-.05.175 0 .097.022.175.05.175.027 0 .05-.08.05-.175 0-.096-.023-.175-.05-.175zM13.5 5.484c0-.922-.062-1-1-1H3.484c-.844 0-1 .094-1 1V12c0 .83.224 1 1 1H12.5c.938 0 1-.234 1-1V5.485z" fill="none" stroke="ButtonText" stroke-opacity=".7" filter="url(#c)" clip-path="url(#d)" stroke-miterlimit="10"/></svg>