<svg xmlns="http://www.w3.org/2000/svg" xmlns:xlink="http://www.w3.org/1999/xlink" width="16" height="16" viewBox="0 0 16 16"><defs><linearGradient id="b" x2="0" y2="100%"><stop offset="0" stop-color="#fff" stop-opacity="0"/><stop offset="1" stop-color="#fff" stop-opacity=".15"/></linearGradient><filter id="c"><feGaussianBlur stdDeviation=".3" in="SourceGraphic"/></filter><path id="a" d="M13.998 12.998h-.975L14.048 15h-12l1.525-3.002H3v1H2c-1.104 0-2-.895-2-2v-3C0 6.895.895 6 2 6v-.5c0-.65.42-1.19 1-1.4V2.5C3 1.67 3.67 1 4.5 1h6.998c.828 0 1.5.67 1.5 1.5v1.6c.58.21 1 .75 1 1.4V6c1.104 0 2 .895 2 2v3c0 1.104-.895 1.998-2 1.998zM3.218 9H2v1h1.22V9zM12 3c0-.552-.447-1-1-1h-6C4.45 2 4 2.447 4 3v3c0 .552.447 1 1 1h6c.552 0 1-.448 1-1V3zM4 9v1h2V9H4zm7.443 2.998h-6.79L3.8 14h8.498l-.855-2.002zm1.555 0h-.475l.475.95V12z"/><clipPath id="d"><use xlink:href="#a" fill="#fff"/></clipPath></defs><use xlink:href="#a" fill="ButtonText" fill-opacity=".8"/><use xlink:href="#a" fill="url(#b)"/><path d="M14.25 13.5l-.39.033 1.077 2.005-13.67-.054.967-1.984H2c-1.28 0-2.484-1.098-2.484-2.203V8c0-1.105.895-2 2-2v-.5c0-.65.39-1.19.97-1.4V2.5c0-.83.56-1.5 2.014-1.5h7.485c1.14 0 1.5.67 1.5 1.5v1.6c.58.21 1 .75 1 1.4V6c1.104 0 1.984.895 1.984 2v3c0 1.104-1.064 2.5-2.22 2.5zm-11.53-4H2.5v.5h.22v-.5zm8.78-6.016c0-.843-.156-1-1-1H5.47c-.83 0-1 .203-1 1V6c0 .72.06 1 1 1h5.03c.812 0 1-.28 1-1V3.484zm-7 6.032V10h.984v-.484H4.5zm6.64 2.953l-6.17.03-.61 1.484h7.375l-.594-1.515z" fill="none" stroke="ButtonText" stroke-opacity=".7" filter="url(#c)" clip-path="url(#d)" stroke-miterlimit="10"/></svg>