<?xml version="1.0" encoding="UTF-8" standalone="no"?>
<svg
   xmlns:dc="http://purl.org/dc/elements/1.1/"
   xmlns:cc="http://creativecommons.org/ns#"
   xmlns:rdf="http://www.w3.org/1999/02/22-rdf-syntax-ns#"
   xmlns:svg="http://www.w3.org/2000/svg"
   xmlns="http://www.w3.org/2000/svg"
   xmlns:xlink="http://www.w3.org/1999/xlink"
   xmlns:sodipodi="http://sodipodi.sourceforge.net/DTD/sodipodi-0.dtd"
   xmlns:inkscape="http://www.inkscape.org/namespaces/inkscape"
   height="32"
   id="Layer_1"
   version="1.1"
   viewBox="0 0 32 32"
   width="32"
   xml:space="preserve"
   inkscape:version="0.48.4 r9939"
   sodipodi:docname="reloadStopGo-reload.svg"><metadata
     id="metadata9"><rdf:RDF><cc:Work
         rdf:about=""><dc:format>image/svg+xml</dc:format><dc:type
           rdf:resource="http://purl.org/dc/dcmitype/StillImage" /></cc:Work></rdf:RDF></metadata><defs
     id="defs7"><linearGradient
       inkscape:collect="always"
       id="linearGradient3765"><stop
         style="stop-color:#000000;stop-opacity:1;"
         offset="0"
         id="stop3767" /><stop
         style="stop-color:#000000;stop-opacity:0;"
         offset="1"
         id="stop3769" /></linearGradient><linearGradient
       inkscape:collect="always"
       xlink:href="#linearGradient3765"
       id="linearGradient3771"
       x1="32.041714"
       y1="33.359657"
       x2="-29.349585"
       y2="-23.055809"
       gradientUnits="userSpaceOnUse"
       gradientTransform="matrix(0.94574373,0,0,0.94574373,0.93715321,1.07526)" /></defs><sodipodi:namedview
     pagecolor="#ffffff"
     bordercolor="#666666"
     borderopacity="1"
     objecttolerance="10"
     gridtolerance="10"
     guidetolerance="10"
     inkscape:pageopacity="0"
     inkscape:pageshadow="2"
     inkscape:window-width="1194"
     inkscape:window-height="730"
     id="namedview5"
     showgrid="false"
     inkscape:zoom="7.2407734"
     inkscape:cx="0.28854926"
     inkscape:cy="14.380943"
     inkscape:window-x="726"
     inkscape:window-y="130"
     inkscape:window-maximized="0"
     inkscape:current-layer="Layer_1" /><path
     d="m 27.41798,16.207159 c -1.152862,0 -1.699502,0.812394 -1.891488,1.670184 -0.691338,3.086907 -3.625036,7.787254 -9.457437,7.787254 -5.223343,0 -9.4574392,-4.23504 -9.4574392,-9.457438 0,-5.222397 4.2340962,-9.4574365 9.4574392,-9.4574365 2.118466,0 4.061969,0.7121451 5.636632,1.8914876 H 19.85203 c -1.044101,0 -1.891488,0.8473867 -1.891488,1.8914869 0,1.044101 0.847387,1.891487 1.891488,1.891487 h 5.674462 c 1.044101,0 1.891488,-0.847386 1.891488,-1.891487 V 4.8582351 c 0,-1.0441011 -0.847387,-1.8914876 -1.891488,-1.8914876 -1.044101,0 -1.891488,0.8473865 -1.891488,1.8914876 V 5.3481303 C 21.491003,3.8481807 18.884533,2.9667475 16.069055,2.9667475 c -7.3124923,0 -13.2404142,5.9279219 -13.2404142,13.2404115 0,7.312491 5.9279219,13.240413 13.2404142,13.240413 9.437576,0 13.240412,-8.984566 13.240412,-11.230707 0,-1.374166 -1.00438,-2.009706 -1.891487,-2.009706 z"
     id="path3"
     style="fill:url(#linearGradient3771);fill-opacity:1"
     inkscape:connector-curvature="0" /></svg>