<svg xmlns="http://www.w3.org/2000/svg" xmlns:xlink="http://www.w3.org/1999/xlink" height="32" viewBox="0 0 32 32" width="32"><defs><linearGradient id="a"><stop offset="0" stop-color="#005079"/><stop offset="1" stop-color="#097db8"/></linearGradient><linearGradient xlink:href="#a" id="b" x1="27.661" y1="2.693" x2="4.821" y2="30.099" gradientUnits="userSpaceOnUse" gradientTransform="matrix(.946 0 0 .946 .937 1.075)"/></defs><path d="M27.418 16.207c-1.153 0-1.7.813-1.892 1.67-.69 3.087-3.625 7.788-9.457 7.788-5.224 0-9.458-4.235-9.458-9.458 0-5.222 4.234-9.457 9.457-9.457 2.118 0 4.06.712 5.636 1.89h-1.854c-1.044 0-1.89.85-1.89 1.893 0 1.044.846 1.89 1.89 1.89h5.674c1.045 0 1.892-.846 1.892-1.89V4.858c0-1.044-.847-1.89-1.892-1.89-1.044 0-1.89.846-1.89 1.89v.49c-2.145-1.5-4.75-2.38-7.567-2.38-7.313 0-13.24 5.927-13.24 13.24 0 7.312 5.927 13.24 13.24 13.24 9.437 0 13.24-8.985 13.24-11.23 0-1.375-1.005-2.01-1.892-2.01z" fill="url(#b)"/></svg>