<svg xmlns="http://www.w3.org/2000/svg" xmlns:xlink="http://www.w3.org/1999/xlink" width="43" height="45" viewBox="0 0 43 45"><defs><linearGradient id="a"><stop offset="0" stop-color="#fff" stop-opacity=".294"/><stop offset="1" stop-color="#fff" stop-opacity="0"/></linearGradient><linearGradient><stop offset="0" stop-color="#fff"/><stop offset="1" stop-opacity="0"/></linearGradient><linearGradient x1=".336" y1="2.028" x2=".336" y2="31.353" gradientTransform="matrix(1.455 0 0 1.422 -.149 .413)" gradientUnits="userSpaceOnUse"><stop offset="0" stop-color="#fff" stop-opacity=".9"/><stop offset="1" stop-color="#fff" stop-opacity=".6"/></linearGradient><linearGradient xlink:href="#a" id="b" x1="33.855" y1="-19.213" x2="33.855" y2="59.232" gradientUnits="userSpaceOnUse"/><linearGradient xlink:href="#a" id="c" gradientUnits="userSpaceOnUse" x1="35.713" y1="3.041" x2="35.713" y2="43.628"/></defs><path d="M43 3.28c-18.627.144-20.847 13.927-22.28 21.595-2.252 12.047-6.14 19.188-18.69 19.188l-.124.093h.125c1.57 0 2.997-.093 4.314-.312 1.317-.22 2.502-.57 3.593-1 1.092-.43 2.078-.963 2.97-1.594.89-.63 1.688-1.332 2.405-2.156.718-.824 1.368-1.742 1.938-2.75.57-1.008 1.083-2.13 1.53-3.313.897-2.364 1.564-5.05 2.126-8.06.36-1.918.77-4.225 1.47-6.595.35-1.185.784-2.38 1.31-3.563.53-1.182 1.142-2.364 1.908-3.468.765-1.104 1.685-2.146 2.75-3.094 1.064-.948 2.294-1.785 3.718-2.5 1.425-.715 3.03-1.314 4.876-1.72 1.79-.39 3.82-.594 6.062-.624V3.28z"/><path d="M43.33 3.286c-18.628.142-20.845 13.9-22.28 21.567C18.8 36.9 14.716 44.063 2.17 44.063l-1.795.02-.03 1.417 42.986-.51z" fill="url(#b)"/><path d="M43.33 3.286c-18.628.142-20.845 13.9-22.28 21.567C18.8 36.9 14.716 44.063 2.17 44.063l-1.795.02-.03 1.417 42.986-.51z" fill="url(#c)"/></svg>