<svg xmlns="http://www.w3.org/2000/svg" xmlns:xlink="http://www.w3.org/1999/xlink" width="32" height="32"><defs><linearGradient id="a"><stop offset="0" stop-color="#313131"/><stop offset="1" stop-color="#6f6f6f"/></linearGradient><linearGradient xlink:href="#a" x1=".844" y1="1036.417" x2="31.069" y2="1036.417" gradientUnits="userSpaceOnUse"/><linearGradient xlink:href="#a" id="b" gradientUnits="userSpaceOnUse" x1="1.854" y1="1027.957" x2="30.69" y2="1049.865" gradientTransform="translate(0 -1020.362)"/></defs><path d="M12.344 1.03C5.998 1.03.844 6.155.844 12.5c0 6.346 5.154 11.5 11.5 11.5 2.695 0 5.163-.945 7.125-2.5.433.327 1.19.912 1.124 1.156-.376 1.408.156 2 .156 2s5.364 5.22 5.97 5.782c.448.416 1.043 1.046 2.03.312 0 0 1.03-.757 1.906-1.72.877-.96.094-2 .094-2s-5.668-5.797-6.438-6.374c-.77-.577-1.812.125-1.812.125l-1.125-1.155c1.548-1.96 2.47-4.437 2.47-7.125 0-6.346-5.155-11.47-11.5-11.47zm.03 1.845c5.29 0 9.563 4.305 9.563 9.594 0 5.287-4.274 9.56-9.562 9.56-5.288 0-9.594-4.273-9.594-9.56 0-5.29 4.307-9.595 9.595-9.595zm-.093 4.688a1.04 1.04 0 0 0-.905 1.062l.03 2.938-2.905.03a1.047 1.047 0 0 0 .03 2.095l2.94-.032.03 2.906a1.047 1.047 0 1 0 2.094-.03l-.03-2.938 2.905-.03a1.04 1.04 0 1 0-.032-2.064l-2.938.03-.03-2.936a1.04 1.04 0 0 0-1.19-1.03z" transform="translate(0 -1020.362) translate(0 1020.362)" fill="url(#b)"/></svg>