<svg xmlns="http://www.w3.org/2000/svg" xmlns:xlink="http://www.w3.org/1999/xlink" width="36" height="36" viewBox="0 0 36 36"><defs><linearGradient id="b" x1="1.033" y1=".968" x2="1.033" y2="16.46" gradientTransform="scale(.968 1.033)" gradientUnits="userSpaceOnUse"><stop offset="0" stop-color="#fff" stop-opacity="0"/><stop offset="1" stop-color="#fff" stop-opacity=".15"/></linearGradient><filter id="d" color-interpolation-filters="sRGB"><feGaussianBlur stdDeviation=".3" in="SourceGraphic"/></filter><path id="a" d="M15 7H7.58l3.13-3.158c.387-.39.387-1.027 0-1.417L9.585 1.292c-.386-.39-1.018-.39-1.404 0l-6.89 6.96C.906 8.64.904 9.28 1.29 9.67l6.896 7.033c.384.392 1.015.394 1.4.004l1.126-1.134c.387-.39.387-1.027 0-1.417L7.58 11H15c.55 0 1-.45 1-1V8c0-.55-.45-1-1-1z"/><clipPath id="c"><use xlink:href="#a" width="18" height="18" fill="#fff"/></clipPath></defs><use xlink:href="#a" width="18" height="18" transform="matrix(1.714 0 0 1.714 3.404 2.591)" fill-opacity=".8"/><use xlink:href="#a" width="18" height="18" transform="matrix(1.714 0 0 1.714 3.404 2.591)" fill="url(#b)"/><path d="M18.835 32.234c-.224 0-.435-.09-.593-.25L6.222 20.25c-.327-.335-1.104-1.8.004-2.91L18.038 5.41c.158-.16.37-.248.597-.248.224 0 .435.088.593.247l3.017 2.785c.33.33.33.892.002 1.223l-6.014 6.03h13.94c.472 0 .858.385.858.858v4.672c0 .47-.385.857-.856.857H16.658l6.038 5.71c.327.328.327.89 0 1.22l-3.273 3.224c-.156.157-.365.244-.588.244z" clip-path="url(#c)" filter="url(#d)" fill="none"/></svg>