<svg xmlns="http://www.w3.org/2000/svg" width="16" height="16" viewBox="0 0 16 16"><defs><linearGradient id="b" x2="0" y2="100%"><stop offset="0" stop-color="#fff" stop-opacity="0"/><stop offset="1" stop-color="#fff" stop-opacity=".25"/></linearGradient><filter x="-.5" y="-.25" width="2" height="1.5" color-interpolation-filters="sRGB" id="a"><feGaussianBlur stdDeviation="1" result="innerShadowBlurRE"/><feOffset dy="1" result="innerShadowBlurOffsetRE"/><feComposite in2="innerShadowBlurOffsetRE" operator="atop" in="SourceGraphic" result="innerShadowBlurCompositeRE"/><feFlood flood-color="#000" flood-opacity=".25" result="innerShadowBlurFloodRE"/><feBlend in2="innerShadowBlurFloodRE" in="innerShadowBlurCompositeRE" result="innerShadowBlurBlendRE"/><feComposite in2="SourceGraphic" operator="atop" result="sourceGraphicCompositeRE"/><feColorMatrix type="luminanceToAlpha" values="0 0 0 -1 0 0 0 0 -1 0 0 0 0 -1 0 0 0 0 1 0" in="sourceGraphicCompositeRE" result="sourceGraphicAlphaRE"/><feGaussianBlur in="sourceGraphicCompositeRE" stdDeviation="1" result="innerGlowBlurRE"/><feOffset result="innerGlowBlurOffsetRE"/><feComposite in2="innerGlowBlurOffsetRE" operator="atop" in="sourceGraphicCompositeRE" result="innerGlowBlurCompositeRE"/><feFlood flood-color="#000" flood-opacity="1" result="innerGlowFloodRE"/><feBlend in2="innerGlowFloodRE" in="innerGlowBlurCompositeRE" result="innerGlowBlendRE"/><feComposite in2="sourceGraphicCompositeRE" operator="atop" result="sourceGraphicCompositeRE"/><feColorMatrix values="0 0 0 -1 0 0 0 0 -1 0 0 0 0 -1 0 0 0 0 1 0" in="sourceGraphicCompositeRE" result="sourceGraphicAlphaRE"/><feGaussianBlur stdDeviation=".4" in="sourceGraphicAlphaRE" result="bottomEtchBlurRE"/><feColorMatrix values="-1 0 0 0 1 0 -1 0 0 1 0 0 -1 0 1 0 0 0 0.25 0" result="bottomEtchAlphaRE"/><feOffset dy="1" in="bottomEtchAlphaRE" result="bottomEtchOffsetRE"/><feMerge result="sourceGraphicCompositeRE"><feMergeNode in="bottomEtchOffsetRE"/><feMergeNode id="sourceNODE" in="sourceGraphicCompositeRE"/></feMerge><feColorMatrix values="0 0 0 -1 0 0 0 0 -1 0 0 0 0 -1 0 0 0 0 1 0" in="sourceGraphicCompositeRE" result="sourceGraphicAlphaRE"/><feGaussianBlur stdDeviation="1" in="sourceGraphicAlphaRE" result="outerGlowBlurRE"/><feColorMatrix values="-1 0 0 0 1 0 -1 0 0 1 0 0 -1 0 1 0 0 0 0.5 0" result="outerGlowAlphaRE"/><feOffset in="outerGlowAlphaRE" result="outerGlowOffsetRE"/><feMerge><feMergeNode in="outerGlowOffsetRE"/><feMergeNode in="sourceGraphicCompositeRE"/></feMerge></filter></defs><path d="M11.412 5.46C8.098 1.434 1.772 1 1.772 1 1.347 1 1 1.298 1 1.725V3.08c0 .426.348.725.77.725 0 0 4.522.146 7.07 3.18 3.495 3.62 3.23 7.242 3.23 7.242 0 .428.345.773.77.773h1.487c.425 0 .673-.346.673-.773 0 0-.314-5.696-3.588-8.768zm-9.65.513c-.418 0-.762.29-.762.707V8c0 .417.344.707.76.707 0 0 2.384.063 3.814 1.385 1.888 1.746 1.837 4.162 1.837 4.162.002.416.2.746.617.746H9.49c.42 0 .52-.33.52-.746 0 0-.35-3.906-2.47-5.89-2.073-1.938-5.78-2.39-5.78-2.39zM3 11.023c-1.096 0-1.986.885-1.986 1.975s.89 1.973 1.987 1.973C4.1 14.97 4.99 14.09 4.99 13s-.89-1.975-1.987-1.975z" id="feedGlyphBASE" fill="ButtonText" filter="url(#a)"/><path d="M11.412 5.46C8.098 1.434 1.772 1 1.772 1 1.347 1 1 1.298 1 1.725V3.08c0 .426.348.725.77.725 0 0 4.522.146 7.07 3.18 3.495 3.62 3.23 7.242 3.23 7.242 0 .428.345.773.77.773h1.487c.425 0 .673-.346.673-.773 0 0-.314-5.696-3.588-8.768zm-9.65.513c-.418 0-.762.29-.762.707V8c0 .417.344.707.76.707 0 0 2.384.063 3.814 1.385 1.888 1.746 1.837 4.162 1.837 4.162.002.416.2.746.617.746H9.49c.42 0 .52-.33.52-.746 0 0-.35-3.906-2.47-5.89-2.073-1.938-5.78-2.39-5.78-2.39zM3 11.023c-1.096 0-1.986.885-1.986 1.975s.89 1.973 1.987 1.973C4.1 14.97 4.99 14.09 4.99 13s-.89-1.975-1.987-1.975z" fill="url(#b)"/></svg>