<svg xmlns="http://www.w3.org/2000/svg" xmlns:xlink="http://www.w3.org/1999/xlink" width="32" height="32" viewBox="0 0 32 32"><defs><linearGradient id="b" x1=".001" y1="1.069" x2=".001" y2="16.036" gradientTransform="scale(1.069 .935)" gradientUnits="userSpaceOnUse"><stop offset="0" stop-color="#fff" stop-opacity="0"/><stop offset="1" stop-color="#fff" stop-opacity=".15"/></linearGradient><filter id="d" color-interpolation-filters="sRGB"><feGaussianBlur stdDeviation=".3" in="SourceGraphic"/></filter><path id="a" d="M14.002 8.01l-6-5.007L2 8.01H0L8 1l8 7.01h-2zm-1 0V15h-4v-4.988H7V15H3V8.01l5-4.006 5 4.006z"/><clipPath id="c"><use xlink:href="#a" width="16" height="16" fill="#fff"/></clipPath></defs><use xlink:href="#a" width="16" height="16" transform="matrix(1.849 0 0 1.849 1.341 1.152)" fill-opacity=".8"/><use xlink:href="#a" width="16" height="16" transform="matrix(1.849 0 0 1.849 1.341 1.152)" fill="url(#b)"/><path d="M26.883 16.958L16.137 7.81 5.474 16.756l-5.322.23L16.137 3.003l15.81 13.978-5.064-.022zM.194-.095l-.145 13.118H3.99V12.16H2.14v9.274h-9.21L-7.033 8.2 3.064.15l10.2 8.168z" clip-path="url(#c)" filter="url(#d)" fill="none"/></svg>