<svg xmlns="http://www.w3.org/2000/svg" xmlns:xlink="http://www.w3.org/1999/xlink" width="32" height="32" viewBox="0 0 32 32"><defs><linearGradient id="b" y1="1.109" x2="0" y2="15.532" gradientTransform="scale(1.109 .901)" gradientUnits="userSpaceOnUse"><stop offset="0" stop-color="#fff" stop-opacity="0"/><stop offset="1" stop-color="#fff" stop-opacity=".15"/></linearGradient><filter id="d" color-interpolation-filters="sRGB"><feGaussianBlur stdDeviation=".3" in="SourceGraphic"/></filter><path id="a" d="M1.5 4h13c.828 0 1.5-.67 1.5-1.5S15.328 1 14.5 1h-13C.672 1 0 1.67 0 2.5S.672 4 1.5 4zm13 2h-13C.672 6 0 6.67 0 7.5S.672 9 1.5 9h13c.828 0 1.5-.67 1.5-1.5S15.328 6 14.5 6zm0 5h-13c-.828 0-1.5.672-1.5 1.5S.672 14 1.5 14h13c.828 0 1.5-.672 1.5-1.5s-.672-1.5-1.5-1.5z"/><clipPath id="c"><use xlink:href="#a" width="16" height="16" fill="#fff"/></clipPath></defs><use xlink:href="#a" width="16" height="16" transform="matrix(1.864 0 0 1.864 1.22 2.271)" fill-opacity=".8"/><use xlink:href="#a" width="16" height="16" transform="matrix(1.864 0 0 1.864 1.22 2.271)" fill="url(#b)"/><path d="M3.638 10.432h24.995c1.592 0 2.884-1.41 2.884-3.147 0-1.738-1.292-3.15-2.884-3.15H3.638c-1.592 0-2.884 1.41-2.884 3.148 0 1.737 1.292 3.15 2.884 3.15zm22.653-3.03H1.298c-1.592 0-2.884 1.41-2.884 3.148 0 1.738 1.292 3.147 2.884 3.147H26.29c1.593 0 2.885-1.41 2.885-3.147 0-1.738-1.292-3.147-2.884-3.147zM3.116 13.92H-10.29c-1.593 0-2.885 1.41-2.885 3.147 0 1.737 1.292 3.146 2.884 3.146h24.993c1.592 0 2.884-1.41 2.884-3.147 0-1.738-1.292-3.148-2.884-3.148z" clip-path="url(#c)" filter="url(#d)" fill="none"/></svg>