<svg xmlns="http://www.w3.org/2000/svg" xmlns:xlink="http://www.w3.org/1999/xlink" width="16" height="16" viewBox="0 0 16 16"><defs><linearGradient id="b" x2="0" y2="100%"><stop offset="0" stop-color="#fff" stop-opacity="0"/><stop offset="1" stop-color="#fff" stop-opacity=".15"/></linearGradient><filter id="c"><feGaussianBlur stdDeviation=".3" in="SourceGraphic"/></filter><path id="a" d="M14.5 15h-13C.674 15 0 14.33 0 13.5v-6C0 6.674.674 6 1.5 6H2c.554 0 1-.446 1-1V2.5C3 1.672 3.673 1 4.5 1h7c.83 0 1.5.672 1.5 1.5V5c0 .553.45 1 1 1h.5c.83 0 1.5.672 1.5 1.5v6c0 .83-.67 1.5-1.5 1.5zM11 8H9V6H7v2H5v2h2v2h2v-2h2V8z"/><clipPath id="d"><use xlink:href="#a" fill="#fff"/></clipPath></defs><use xlink:href="#a" fill="ButtonText" fill-opacity=".8"/><use xlink:href="#a" fill="url(#b)"/><path d="M14.625 15.516H1.485c-.985 0-1.984-.953-1.984-1.78V7.5C-.5 6.674.407 6 1.876 6h-.017c.553 0 .626-.446.626-1V2.5c0-.828.67-1.5 1.5-1.5h8c.83 0 1.5.672 1.5 1.5V5c0 .553.45 1 1 1h.905c.798 0 1.095.968 1.095 1.625v5.922c0 .828-.688 1.97-1.86 1.97zM11.5 8H9.484V6H6.5v2h-2v2.5h2v2h3v-2h2V8z" stroke="ButtonText" stroke-opacity=".7" filter="url(#c)" clip-path="url(#d)" stroke-miterlimit="10" fill="none"/></svg>