<svg xmlns="http://www.w3.org/2000/svg" xmlns:xlink="http://www.w3.org/1999/xlink" width="43" height="45" viewBox="0 0 43 45"><defs><linearGradient id="a"><stop offset="0" stop-color="#fff" stop-opacity=".294"/><stop offset="1" stop-color="#fff" stop-opacity="0"/></linearGradient><linearGradient><stop offset="0" stop-color="#fff"/><stop offset="1" stop-opacity="0"/></linearGradient><linearGradient x1=".336" y1="2.028" x2=".336" y2="31.353" gradientTransform="matrix(1.455 0 0 1.422 -.149 .413)" gradientUnits="userSpaceOnUse"><stop offset="0" stop-color="#fff" stop-opacity=".9"/><stop offset="1" stop-color="#fff" stop-opacity=".6"/></linearGradient><linearGradient xlink:href="#a" id="b" x1="33.855" y1="-19.213" x2="33.855" y2="59.232" gradientUnits="userSpaceOnUse" gradientTransform="matrix(-1 0 0 1 43.006 0)"/><linearGradient xlink:href="#a" id="c" gradientUnits="userSpaceOnUse" x1="35.713" y1="3.041" x2="35.713" y2="43.628" gradientTransform="matrix(-1 0 0 1 43.006 0)"/></defs><path d="M.006 3.28c18.628.144 20.848 13.927 22.282 21.595 2.25 12.047 6.14 19.188 18.687 19.188l.125.093h-.125c-1.568 0-2.995-.093-4.312-.312-1.317-.22-2.503-.57-3.594-1-1.092-.43-2.078-.963-2.97-1.594-.89-.63-1.688-1.332-2.406-2.156-.718-.824-1.368-1.742-1.938-2.75-.57-1.008-1.083-2.13-1.53-3.313-.896-2.364-1.563-5.05-2.126-8.06-.358-1.918-.768-4.225-1.47-6.595-.35-1.185-.784-2.38-1.31-3.563-.528-1.182-1.142-2.364-1.907-3.468-.766-1.104-1.686-2.146-2.75-3.094-1.065-.948-2.294-1.785-3.72-2.5C9.52 5.035 7.916 4.436 6.07 4.03c-1.79-.39-3.82-.594-6.064-.624V3.28z"/><path d="M-.323 3.286c18.628.142 20.844 13.9 22.278 21.567 2.25 12.047 6.336 19.21 18.884 19.21l1.793.02.03 1.417-42.986-.51z" fill="url(#b)"/><path d="M-.323 3.286c18.628.142 20.844 13.9 22.278 21.567 2.25 12.047 6.336 19.21 18.884 19.21l1.793.02.03 1.417-42.986-.51z" fill="url(#c)"/></svg>