<?xml version="1.0" encoding="UTF-8" standalone="no"?>
<!-- Created with Inkscape (http://www.inkscape.org/) -->

<svg
   xmlns:dc="http://purl.org/dc/elements/1.1/"
   xmlns:cc="http://creativecommons.org/ns#"
   xmlns:rdf="http://www.w3.org/1999/02/22-rdf-syntax-ns#"
   xmlns:svg="http://www.w3.org/2000/svg"
   xmlns="http://www.w3.org/2000/svg"
   xmlns:xlink="http://www.w3.org/1999/xlink"
   xmlns:sodipodi="http://sodipodi.sourceforge.net/DTD/sodipodi-0.dtd"
   xmlns:inkscape="http://www.inkscape.org/namespaces/inkscape"
   width="32"
   height="32"
   id="svg2"
   version="1.1"
   inkscape:version="0.48.4 r9939"
   sodipodi:docname="zoom-in.svg">
  <defs
     id="defs4">
    <linearGradient
       id="linearGradient4502">
      <stop
         style="stop-color:#313131;stop-opacity:1;"
         offset="0"
         id="stop4504" />
      <stop
         style="stop-color:#6f6f6f;stop-opacity:1;"
         offset="1"
         id="stop4506" />
    </linearGradient>
    <linearGradient
       inkscape:collect="always"
       xlink:href="#linearGradient4502"
       id="linearGradient4508"
       x1="0.84374978"
       y1="1036.4172"
       x2="31.069015"
       y2="1036.4172"
       gradientUnits="userSpaceOnUse" />
    <linearGradient
       inkscape:collect="always"
       xlink:href="#linearGradient4502"
       id="linearGradient4510"
       gradientUnits="userSpaceOnUse"
       x1="1.8539023"
       y1="1027.9572"
       x2="30.690208"
       y2="1049.8649" />
  </defs>
  <sodipodi:namedview
     id="base"
     pagecolor="#ffffff"
     bordercolor="#666666"
     borderopacity="1.0"
     inkscape:pageopacity="0.0"
     inkscape:pageshadow="2"
     inkscape:zoom="15.839192"
     inkscape:cx="-0.24232348"
     inkscape:cy="20.693474"
     inkscape:document-units="px"
     inkscape:current-layer="g4496"
     showgrid="false"
     inkscape:window-width="1871"
     inkscape:window-height="1056"
     inkscape:window-x="49"
     inkscape:window-y="24"
     inkscape:window-maximized="1" />
  <metadata
     id="metadata7">
    <rdf:RDF>
      <cc:Work
         rdf:about="">
        <dc:format>image/svg+xml</dc:format>
        <dc:type
           rdf:resource="http://purl.org/dc/dcmitype/StillImage" />
        <dc:title></dc:title>
      </cc:Work>
    </rdf:RDF>
  </metadata>
  <g
     inkscape:label="Calque 1"
     inkscape:groupmode="layer"
     id="layer1"
     transform="translate(0,-1020.3622)">
    <g
       id="g4496"
       style="stroke:none;fill:url(#linearGradient4508);fill-opacity:1">
      <path
         style="fill:url(#linearGradient4510);fill-opacity:1;stroke:none"
         d="m 12.34375,1021.3935 c -6.3461749,0 -11.50000022,5.1225 -11.50000022,11.4687 0,6.3462 5.15382532,11.5 11.50000022,11.5 6.346175,0 11.5,-5.1538 11.5,-11.5 0,-6.3462 -5.153825,-11.4687 -11.5,-11.4687 z m 0.03125,1.8437 c 5.288479,0 9.5625,4.3053 9.5625,9.5938 0,5.2884 -4.274021,9.5625 -9.5625,9.5625 -5.2884792,0 -9.5937502,-4.2741 -9.5937502,-9.5625 0,-5.2885 4.305271,-9.5938 9.5937502,-9.5938 z"
         id="path2996"
         inkscape:connector-curvature="0" />
      <path
         sodipodi:nodetypes="ccscscscscc"
         inkscape:connector-curvature="0"
         id="path3768"
         d="m 21.223732,1039.8404 1.261078,1.3038 c 0,0 1.047336,-0.7053 1.816805,-0.1282 0.769472,0.5771 6.455007,6.3908 6.455007,6.3908 0,0 0.769472,1.026 -0.106871,1.9878 -0.876341,0.9619 -1.903378,1.7033 -1.903378,1.7033 -0.987452,0.7335 -1.593583,0.1249 -2.042439,-0.2919 -0.604593,-0.5614 -5.950433,-5.7931 -5.950433,-5.7931 0,0 -0.524958,-0.5802 -0.149619,-1.9878 0.08549,-0.3206 -1.496194,-1.4534 -1.496194,-1.4534 z"
         style="fill:url(#linearGradient4508);fill-opacity:1;stroke:none" />
      <path
         style="font-size:medium;font-style:normal;font-variant:normal;font-weight:normal;font-stretch:normal;text-indent:0;text-align:start;text-decoration:none;line-height:normal;letter-spacing:normal;word-spacing:normal;text-transform:none;direction:ltr;block-progression:tb;writing-mode:lr-tb;text-anchor:start;baseline-shift:baseline;color:#000000;fill:url(#linearGradient4508);fill-opacity:1;stroke:none;stroke-width:2.07923436000000006;marker:none;visibility:visible;display:inline;overflow:visible;enable-background:accumulate;font-family:Sans;-inkscape-font-specification:Sans"
         d="M 16.4375,1031.875 8.5,1031.969 a 1.0469666,1.0469666 0 1 0 0.03125,2.0937 l 7.9375,-0.125 a 1.0397211,1.0397211 0 1 0 -0.03125,-2.0625 z"
         id="path3836"
         inkscape:connector-curvature="0" />
    </g>
  </g>
</svg>
