<svg xmlns="http://www.w3.org/2000/svg" xmlns:xlink="http://www.w3.org/1999/xlink" width="32" height="32"><defs><linearGradient id="a"><stop offset="0" stop-color="#313131"/><stop offset="1" stop-color="#6f6f6f"/></linearGradient><linearGradient xlink:href="#a" id="b" x1=".844" y1="1036.417" x2="31.069" y2="1036.417" gradientUnits="userSpaceOnUse"/><linearGradient xlink:href="#a" id="c" gradientUnits="userSpaceOnUse" x1="1.854" y1="1027.957" x2="30.69" y2="1049.865"/></defs><g fill="url(#b)"><path d="M12.344 1.03C5.998 1.03.844 6.155.844 12.5c0 6.346 5.154 11.5 11.5 11.5s11.5-5.154 11.5-11.5-5.154-11.47-11.5-11.47zm.03 1022.207c5.29 0 9.563 4.306 9.563 9.594 0 5.29-4.274 9.564-9.562 9.564-5.288 0-9.594-4.275-9.594-9.563 0-5.287 4.307-9.593 9.595-9.593z" fill="url(#c)"/><path d="M21.224 19.478l1.26 1.304s1.048-.705 1.818-.128 6.455 6.39 6.455 6.39.77 1.027-.107 1.988c-.877.962-1.904 1.704-1.904 1.704-.987.733-1.593.125-2.042-.292-.605-.562-5.95-5.793-5.95-5.793s-.525-.58-.15-1.987c.085-.32-1.496-1.453-1.496-1.453z"/></g></svg>